<?xml version="1.0" encoding="utf-8"?>
<!-- Generator: Adobe Illustrator 25.3.1, SVG Export Plug-In . SVG Version: 6.00 Build 0)  -->
<svg version="1.1" id="Layer_1" xmlns="http://www.w3.org/2000/svg" xmlns:xlink="http://www.w3.org/1999/xlink" x="0px" y="0px"
	 viewBox="0 0 157 75" style="enable-background:new 0 0 157 75;" xml:space="preserve">
<style type="text/css">
	.st0{fill:#D6D6D1;}
	.st1{fill:url(#SVGID_1_);}
	.st2{fill:url(#SVGID_2_);}
	.st3{fill:url(#SVGID_3_);}
	.st4{fill:none;stroke:url(#SVGID_4_);stroke-width:4.3008;}
</style>
<path class="st0" d="M0,19h4.5v21.3H0V19z"/>
<path class="st0" d="M22.6,32.6c0,0.1,0,0.5-0.1,1.2H10.8c0.2,1,0.7,1.7,1.5,2.3c0.8,0.6,1.8,0.8,2.9,0.8c0.8,0,1.5-0.1,2.1-0.3
	c0.6-0.2,1.2-0.6,1.7-1.1l2.4,2.6c-1.5,1.7-3.6,2.5-6.4,2.5c-1.7,0-3.3-0.3-4.6-1c-1.3-0.7-2.4-1.6-3.1-2.8
	c-0.7-1.2-1.1-2.6-1.1-4.1c0-1.5,0.4-2.9,1.1-4.1c0.7-1.2,1.7-2.2,3-2.8c1.3-0.7,2.7-1,4.2-1c1.5,0,2.9,0.3,4.1,1
	c1.2,0.6,2.2,1.6,2.9,2.8C22.2,29.6,22.6,31,22.6,32.6z M14.6,28c-1,0-1.9,0.3-2.6,0.9c-0.7,0.6-1.1,1.4-1.3,2.4h7.6
	c-0.2-1-0.6-1.7-1.3-2.3C16.4,28.3,15.6,28,14.6,28z"/>
<path class="st0" d="M34.4,39.5c-0.4,0.3-1,0.6-1.6,0.7c-0.6,0.2-1.3,0.2-2,0.2c-1.8,0-3.3-0.5-4.3-1.4c-1-0.9-1.5-2.3-1.5-4.1v-6.3
	h-2.4v-3.4H25v-3.8h4.5v3.8h3.8v3.4h-3.8v6.3c0,0.6,0.2,1.2,0.5,1.5c0.3,0.3,0.8,0.5,1.4,0.5c0.7,0,1.3-0.2,1.8-0.6L34.4,39.5z"/>
<path class="st0" d="M55.5,24.6c1.9,0,3.5,0.6,4.6,1.7c1.1,1.1,1.7,2.8,1.7,5.1v8.8h-4.5v-8.1c0-1.2-0.3-2.1-0.8-2.7
	c-0.5-0.6-1.2-0.9-2.2-0.9c-1.1,0-1.9,0.3-2.5,1c-0.6,0.7-0.9,1.7-0.9,3v7.7h-4.5v-8.1c0-2.4-1-3.6-2.9-3.6c-1,0-1.9,0.3-2.5,1
	c-0.6,0.7-0.9,1.7-0.9,3v7.7h-4.5V24.8H40v1.8c0.6-0.6,1.3-1.1,2.1-1.5c0.8-0.3,1.8-0.5,2.8-0.5c1.1,0,2.1,0.2,3,0.7
	c0.9,0.4,1.6,1,2.1,1.9c0.6-0.8,1.4-1.4,2.4-1.9C53.3,24.8,54.3,24.6,55.5,24.6z"/>
<path class="st0" d="M79.9,32.6c0,0.1,0,0.5-0.1,1.2H68.2c0.2,1,0.7,1.7,1.5,2.3c0.8,0.6,1.8,0.8,2.9,0.8c0.8,0,1.5-0.1,2.1-0.3
	c0.6-0.2,1.2-0.6,1.7-1.1l2.4,2.6c-1.5,1.7-3.6,2.5-6.4,2.5c-1.7,0-3.3-0.3-4.6-1c-1.3-0.7-2.4-1.6-3.1-2.8
	c-0.7-1.2-1.1-2.6-1.1-4.1c0-1.5,0.4-2.9,1.1-4.1c0.7-1.2,1.7-2.2,3-2.8c1.3-0.7,2.7-1,4.2-1c1.5,0,2.9,0.3,4.1,1
	c1.2,0.6,2.2,1.6,2.9,2.8C79.6,29.6,79.9,31,79.9,32.6z M71.9,28c-1,0-1.9,0.3-2.6,0.9c-0.7,0.6-1.1,1.4-1.3,2.4h7.6
	c-0.2-1-0.6-1.7-1.3-2.3C73.8,28.3,72.9,28,71.9,28z"/>
<linearGradient id="SVGID_1_" gradientUnits="userSpaceOnUse" x1="92.4088" y1="58.676" x2="104.4879" y2="24.5645" gradientTransform="matrix(1 0 0 -1 0 76)">
	<stop  offset="0" style="stop-color:#485BFF"/>
	<stop  offset="1" style="stop-color:#FF59F8"/>
</linearGradient>
<path class="st1" d="M106.1,24.8L103,40.3h-4.2l0.3-1.5c-1.3,1.2-2.9,1.7-4.7,1.7c-1.2,0-2.3-0.3-3.3-0.8c-1-0.6-1.8-1.3-2.4-2.4
	c-0.6-1.1-0.9-2.3-0.9-3.7c0-1.7,0.4-3.2,1.1-4.6c0.8-1.4,1.8-2.4,3.1-3.2c1.3-0.8,2.7-1.2,4.3-1.2c2.4,0,4,0.8,5,2.3l0.4-2.1H106.1
	z M95.7,36.8c0.9,0,1.7-0.2,2.4-0.6c0.7-0.4,1.2-1,1.6-1.8c0.4-0.8,0.6-1.6,0.6-2.6c0-1.1-0.3-1.9-0.9-2.5c-0.6-0.6-1.5-0.9-2.6-0.9
	c-0.9,0-1.7,0.2-2.4,0.7c-0.7,0.4-1.2,1-1.6,1.8c-0.4,0.8-0.6,1.6-0.6,2.6c0,1.1,0.3,1.9,0.9,2.5C93.7,36.5,94.6,36.8,95.7,36.8z"/>
<linearGradient id="SVGID_2_" gradientUnits="userSpaceOnUse" x1="105.7141" y1="63.3874" x2="117.7931" y2="29.2759" gradientTransform="matrix(1 0 0 -1 0 76)">
	<stop  offset="0" style="stop-color:#485BFF"/>
	<stop  offset="1" style="stop-color:#FF59F8"/>
</linearGradient>
<path class="st2" d="M111.6,40.5c-1.3,0-2.6-0.1-3.8-0.4c-1.2-0.3-2.1-0.7-2.8-1.2l1.7-3.2c0.7,0.4,1.5,0.8,2.4,1.1
	c1,0.3,1.9,0.4,2.9,0.4c1,0,1.8-0.1,2.3-0.4c0.5-0.3,0.7-0.6,0.7-1.1c0-0.4-0.2-0.7-0.7-0.8c-0.4-0.2-1.1-0.4-2.1-0.5
	c-1.1-0.2-2-0.4-2.8-0.7c-0.7-0.2-1.3-0.6-1.9-1.2c-0.5-0.6-0.8-1.3-0.8-2.3c0-1.7,0.7-3,2.1-4c1.4-1,3.3-1.4,5.6-1.4
	c1.1,0,2.1,0.1,3.1,0.3s1.9,0.5,2.6,0.9l-1.6,3.3c-1.3-0.8-2.8-1.2-4.6-1.2c-1,0-1.7,0.1-2.2,0.4c-0.5,0.3-0.7,0.6-0.7,1.1
	c0,0.4,0.2,0.7,0.7,0.9c0.4,0.2,1.2,0.4,2.2,0.6c1.1,0.2,2,0.4,2.7,0.7c0.7,0.2,1.3,0.6,1.8,1.2s0.8,1.3,0.8,2.3c0,1.7-0.7,3-2.2,4
	C115.8,40,113.9,40.5,111.6,40.5z"/>
<linearGradient id="SVGID_3_" gradientUnits="userSpaceOnUse" x1="120.9058" y1="68.7669" x2="132.9849" y2="34.6554" gradientTransform="matrix(1 0 0 -1 0 76)">
	<stop  offset="0" style="stop-color:#485BFF"/>
	<stop  offset="1" style="stop-color:#FF59F8"/>
</linearGradient>
<path class="st3" d="M131.6,31.6l5.3,8.7h-5.2l-3.7-6l-2.7,2.3l-0.7,3.7h-4.5l4.2-21.3h4.5l-2.4,11.9l7.4-6h5.8L131.6,31.6z"/>
<linearGradient id="SVGID_4_" gradientUnits="userSpaceOnUse" x1="89.8938" y1="80.1154" x2="150.1046" y2="5.5684" gradientTransform="matrix(1 0 0 -1 0 76)">
	<stop  offset="0" style="stop-color:#485BFF"/>
	<stop  offset="1" style="stop-color:#FF59F8"/>
</linearGradient>
<path class="st4" d="M81.1,15.9V8.7c0-3.2,2.6-5.7,5.7-5.7h61.6c3.2,0,5.7,2.6,5.7,5.7v40.1c0,3.2-2.6,5.7-5.7,5.7h-10l3.4,15.7
	c0.3,1.4-1.3,2.3-2.4,1.4l-15.3-14.1H86.8c-3.2,0-5.7-2.6-5.7-5.7v-2.9"/>
</svg>
