<svg xmlns="http://www.w3.org/2000/svg" xmlns:xlink="http://www.w3.org/1999/xlink" viewBox="0 0 77.41 73.3"><defs><style>.cls-1{fill:url(#linear-gradient);}.cls-2{fill:url(#linear-gradient-2);}.cls-3{fill:url(#linear-gradient-3);}.cls-4{fill:none;stroke-width:4.3px;stroke:url(#linear-gradient-4);}</style><linearGradient id="linear-gradient" x1="17.45" y1="57.83" x2="29.53" y2="23.71" gradientTransform="matrix(1, 0, 0, -1, 0, 74.3)" gradientUnits="userSpaceOnUse"><stop offset="0" stop-color="#485bff"/><stop offset="1" stop-color="#ff59f8"/></linearGradient><linearGradient id="linear-gradient-2" x1="30.76" y1="62.54" x2="42.84" y2="28.43" xlink:href="#linear-gradient"/><linearGradient id="linear-gradient-3" x1="45.95" y1="67.92" x2="58.03" y2="33.81" xlink:href="#linear-gradient"/><linearGradient id="linear-gradient-4" x1="10.96" y1="79.27" x2="71.17" y2="4.72" xlink:href="#linear-gradient"/></defs><g id="Layer_2" data-name="Layer 2"><g id="Layer_1-2" data-name="Layer 1"><path class="cls-1" d="M31.13,24,28.06,39.42H23.82l.28-1.52a6.74,6.74,0,0,1-4.73,1.75,6.73,6.73,0,0,1-3.32-.83,6.27,6.27,0,0,1-2.44-2.38,7.42,7.42,0,0,1-.89-3.7,9.28,9.28,0,0,1,1.12-4.58,8.35,8.35,0,0,1,3.1-3.22,8.19,8.19,0,0,1,4.3-1.17q3.56,0,5,2.32l.4-2.09ZM20.75,36a4.42,4.42,0,0,0,2.35-.63,4.53,4.53,0,0,0,1.61-1.8,5.89,5.89,0,0,0,.57-2.64,3.31,3.31,0,0,0-1-2.49,3.45,3.45,0,0,0-2.58-.92A4.35,4.35,0,0,0,17.8,29.9a5.76,5.76,0,0,0-.58,2.64,3.39,3.39,0,0,0,.92,2.5A3.59,3.59,0,0,0,20.75,36Z"/><path class="cls-2" d="M36.67,39.65a16.24,16.24,0,0,1-3.81-.43,8.32,8.32,0,0,1-2.78-1.17l1.72-3.24a8.71,8.71,0,0,0,2.44,1.06,10.87,10.87,0,0,0,2.92.4,5.31,5.31,0,0,0,2.27-.37,1.24,1.24,0,0,0,.74-1.12.87.87,0,0,0-.66-.83,13.33,13.33,0,0,0-2.12-.55,19.87,19.87,0,0,1-2.75-.69,4.73,4.73,0,0,1-1.87-1.2A3.37,3.37,0,0,1,32,29.19a4.57,4.57,0,0,1,2.12-4,10,10,0,0,1,5.62-1.43,14.16,14.16,0,0,1,3.13.34,9.59,9.59,0,0,1,2.58.95l-1.61,3.27a8.41,8.41,0,0,0-4.56-1.18,4.74,4.74,0,0,0-2.23.43,1.26,1.26,0,0,0-.75,1.09.94.94,0,0,0,.66.89,15.42,15.42,0,0,0,2.21.57,17.6,17.6,0,0,1,2.66.69A4.26,4.26,0,0,1,43.67,32a3.16,3.16,0,0,1,.77,2.26,4.47,4.47,0,0,1-2.18,4A10.09,10.09,0,0,1,36.67,39.65Z"/><path class="cls-3" d="M56.64,30.71l5.3,8.71H56.75l-3.67-6L50.36,35.7l-.75,3.72H45.14l4.24-21.27h4.48l-2.38,11.9L58.87,24h5.82Z"/><path class="cls-4" d="M2.15,15.05V7.88A5.74,5.74,0,0,1,7.88,2.15H69.53a5.73,5.73,0,0,1,5.73,5.73V48a5.73,5.73,0,0,1-5.73,5.73h-10l3.36,15.65a1.44,1.44,0,0,1-2.38,1.35L45.16,56.63H7.88a5.74,5.74,0,0,1-5.73-5.74V48"/></g></g></svg>